# xmcd
#
# Track frame offsets:
#	150
#	6679
#	16713
#	21814
#	28963
#	39015
#	52819
#	61760
#	70184
#	81166
#	93229
#	107854
#	115987
#	128073
#	137830
#	145424
#	152203
#	166968
#
# Disc length: 2371 seconds
#
# Revision: 0
# Processed by: cddbd v1.5.1PL0 Copyright (c) Steve Scherf et al.
# Submitted via: dBpowerAMP V4.0
#
DISCID=ea094112
DTITLE=Dennis Taylor - Blues Saxophone
DYEAR=2001
DGENRE=Blues
TTITLE0=Eddie Shaw
TTITLE1=A.C. Reed
TTITLE2=Maxwell Davis
TTITLE3=Bobby Forte
TTITLE4=Lee Allen
TTITLE5=Noble "Thin Man" Watts
TTITLE6=King Curtis
TTITLE7=Big Jay McNeely
TTITLE8=Red Prysock
TTITLE9=Illinois Jacquet
TTITLE10=Lester Young
TTITLE11=Gene Ammons
TTITLE12=Jimmy "Night Train" Forrest
TTITLE13=Eddie "Lockjaw" Davis
TTITLE14=Willis "Gator" Jackson
TTITLE15=Stanley Turrentine
TTITLE16=Sonny Stitt
TTITLE17=Sonny Rollins
EXTD=Blues Saxophone
EXTT0=
EXTT1=
EXTT2=
EXTT3=
EXTT4=
EXTT5=
EXTT6=
EXTT7=
EXTT8=
EXTT9=
EXTT10=
EXTT11=
EXTT12=
EXTT13=
EXTT14=
EXTT15=
EXTT16=
EXTT17=
PLAYORDER=
